<svg id="レイヤー_1" data-name="レイヤー 1" xmlns="http://www.w3.org/2000/svg" viewBox="0 0 841.89 595.28"><defs><style>.cls-1{fill:#231815;}</style></defs><title>wilderness_logo</title><path class="cls-1" d="M302.75,393.09c-.05.84-.43,3.19-.59,4l-.7,3.89h-3.73l-2.21-11.14h2.71l1.1,5.71a23.8,23.8,0,0,1,.43,3.16h.14a30.51,30.51,0,0,1,.53-3.16l1.19-5.71h2.53l1.24,5.71a22.28,22.28,0,0,1,.51,3.16h.15a27.65,27.65,0,0,1,.38-3.16l1-5.71h2.69L307.88,401H304.3l-.8-3.94c-.15-.79-.57-3.13-.61-4Z"/><path class="cls-1" d="M319.88,401h-2.64V389.88h2.64Z"/><path class="cls-1" d="M334.78,399v2h-6.9V389.88h2.64V399Z"/><path class="cls-1" d="M345.66,389.88c3.08,0,5,1.7,5,5.44,0,4-2.11,5.7-5.16,5.7h-3.58V389.88Zm0,9.28c1.41,0,2.38-1,2.38-3.71s-1-3.72-2.66-3.72h-.88v7.43Z"/><path class="cls-1" d="M364.93,399.09V401H358.1V389.88h6.7v1.92h-4.13v2.65h3.72v1.86h-3.72v2.78Z"/><path class="cls-1" d="M377.53,401,375.86,397h-1.07V401h-2.57V389.88H376c2.3,0,3.92,1,3.92,3.27a2.92,2.92,0,0,1-1.78,3l2.4,4.89Zm-2.74-6h.91a1.43,1.43,0,0,0,1.63-1.63,1.49,1.49,0,0,0-1.63-1.69h-.91Z"/><path class="cls-1" d="M396.49,389.88V401h-3.71l-2.37-6.64a18.6,18.6,0,0,1-.65-2.29h-.12c.18,1.83.27,4.4.27,6v3h-2.32V389.88h3.72l2.37,6.64a19.42,19.42,0,0,1,.66,2.29h.12c-.18-1.85-.28-3.81-.28-5.66v-3.27Z"/><path class="cls-1" d="M411.32,399.09V401h-6.83V389.88h6.7v1.92h-4.13v2.65h3.72v1.86h-3.72v2.78Z"/><path class="cls-1" d="M420.53,397.33c.18,1.26.75,1.95,1.94,1.95a1,1,0,0,0,1.17-1.06c0-.8-.48-1.11-2.24-1.73-2-.71-3.07-1.7-3.07-3.4,0-2.1,1.48-3.36,3.74-3.36s3.69,1.15,4,3.27l-2.54.53c-.1-1.34-.63-2-1.57-2a1,1,0,0,0-1.13,1.14c0,.76.53,1.16,2.13,1.67,2.37.76,3.37,1.65,3.37,3.48,0,2.07-1.5,3.4-4,3.4s-4.11-1.19-4.41-3.52Z"/><path class="cls-1" d="M435.53,397.33c.18,1.26.76,1.95,1.94,1.95a1,1,0,0,0,1.17-1.06c0-.8-.48-1.11-2.24-1.73-2-.71-3.07-1.7-3.07-3.4,0-2.1,1.48-3.36,3.74-3.36s3.69,1.15,4,3.27l-2.54.53c-.1-1.34-.63-2-1.57-2a1,1,0,0,0-1.13,1.14c0,.76.53,1.16,2.13,1.67,2.37.76,3.37,1.65,3.37,3.48,0,2.07-1.5,3.4-4,3.4s-4.12-1.19-4.42-3.52Z"/><path class="cls-1" d="M475.18,394.92c0,.43.05.78.05,1.21,0,3.2-1.55,5.05-4.42,5.05-3.18,0-4.82-1.95-4.82-5.73,0-3.53,1.8-5.72,4.69-5.72a4,4,0,0,1,4.24,3.53l-2.66.6c-.12-1.56-.64-2.27-1.63-2.27-1.24,0-1.92,1.33-1.92,3.76,0,2.7.74,4,2.21,4,1.13,0,1.69-.87,1.7-2.69h-2v-1.78Z"/><path class="cls-1" d="M491.3,401h-2.65l-.64-2.61h-3.42L484,401h-2.45l2.85-11.14h4.07Zm-4.63-8.14a13.41,13.41,0,0,1-.32-1.53h-.07c-.08.51-.2,1-.33,1.53l-.87,3.53h2.44Z"/><path class="cls-1" d="M503.61,401,501.94,397h-1.07V401H498.3V389.88h3.76c2.29,0,3.92,1,3.92,3.27a2.92,2.92,0,0,1-1.78,3l2.4,4.89Zm-2.74-6h.91a1.43,1.43,0,0,0,1.63-1.63,1.49,1.49,0,0,0-1.63-1.69h-.91Z"/><path class="cls-1" d="M517.4,389.88c3.08,0,5,1.7,5,5.44,0,4-2.11,5.7-5.15,5.7h-3.59V389.88Zm0,9.28c1.41,0,2.39-1,2.39-3.71s-1-3.72-2.66-3.72h-.89v7.43Z"/><path class="cls-1" d="M536.68,399.09V401h-6.83V389.88h6.7v1.92h-4.13v2.65h3.71v1.86h-3.71v2.78Z"/><path class="cls-1" d="M552.86,389.88V401h-3.71l-2.37-6.64a20.54,20.54,0,0,1-.65-2.29H546c.18,1.83.27,4.4.27,6v3H544V389.88h3.72l2.37,6.64a17.69,17.69,0,0,1,.66,2.29h.12c-.18-1.85-.28-3.81-.28-5.66v-3.27Z"/><path class="cls-1" d="M571.53,320.92c.37-2.32.61-4.7,1.15-6.93,1.21-5,2.57-9.84,4.17-14.79a5.19,5.19,0,0,1,.19,1.56c-1.32,5.75-2.64,11.49-4.07,17.18a14,14,0,0,1-1.51,2.93Z"/><path class="cls-1" d="M577.38,296.77l.25,1.4-.44.05-.19-1.4Z"/><path class="cls-1" d="M578.09,294.74l-.29.92V294.6Z"/><path class="cls-1" d="M583.33,267.05c0-.11,0-.21,0-.31C583.32,266.84,583.32,266.94,583.33,267.05Z"/><path class="cls-1" d="M435,309.46c.44-1.95.87-3.91,1.33-5.85.19-.84.46-1.64.7-2.46l-.42-.39a31,31,0,0,0-3.81,4.27c-3,4.92-7.48,7.57-11.7,10.53s-8.59,5.29-13.86,5.27c-4.28,0-9.76-5.39-8.85-10.86.14-.82-.28-1.85-.56-3.51-1.41,1.85-2.6,3.19-3.58,4.75A83.34,83.34,0,0,1,381,327.54a39.71,39.71,0,0,1-5.39,4.72c-3.5,2.3-7.05,1.28-9.18-2.54a14.51,14.51,0,0,1-1.07-4.3c-.18-1-.18-2-.29-3.47a20.06,20.06,0,0,1-2.63,1.52,25.48,25.48,0,0,1-5.82,1.71,4.81,4.81,0,0,1-4.94-3c-.54-1.08-1.07-1.24-1.81-.26a89.73,89.73,0,0,1-6.94,8.7c-2.56,2.63-5.7,4-9.39,2.69-2.33-.86-4-3.61-4.23-6.59-.1-1.23-.3-2.46-.46-3.69l-.54-.17c-1.95,3.67-3.83,7.42-5.87,11-2.84,5-5.47,10.35-10.31,12.94a5.26,5.26,0,0,1-7.28-2.66,11.4,11.4,0,0,1-.8-5.49c.5-5,1.25-9.81,3.71-13.88,1.3-2.14,1.83-5,2.87-7.4.86-2,5.12-2.26,6.38-.34a4.23,4.23,0,0,1,.28,3c-1.57,4.06-3.45,7.91-5,12a81.54,81.54,0,0,0-2.34,8.46,14.33,14.33,0,0,0,.11,2.82c2.16-2.2,4.11-3.71,5.56-5.76q6.64-9.4,12.93-19.21c.79-1.22.75-3.26,1.28-4.81.59-1.74,1.5-3.29,2.09-5s1.36-3.24,3.3-2.85c.26.05.63-.25.78-.53,1.82-3.4,3.72-6.74,5.36-10.29.52-1.15.67-2,1.84-.69,2.7-4,5.5-7.64,7.9-11.69,4.68-7.89,9.28-15.86,13.63-24,3.2-6,6-12.37,8.88-18.64a33.38,33.38,0,0,0,1.68-5.35,4.49,4.49,0,0,0-.23-2.29,158.82,158.82,0,0,0-21.24,36.46l-.61-.27c.22-1.64.47-3.28.63-4.94a6.52,6.52,0,0,0-.29-1.63,4.5,4.5,0,0,0-1,1c-.6,1.2-1.11,2.47-1.78,4-.81-3.75.4-6,1.68-8.55,2.45-4.79,4.25-10.14,6.81-14.81a171.55,171.55,0,0,1,9.35-14.58c2.78-4,6.9-2.68,10.2-.07,1.6,1.26,1.45,3.13.92,4.91-4.76,16.23-12.84,29.82-21,43.3-5.5,9.1-11.61,17.61-17.41,26.43-1.91,2.91-3.73,5.93-5.51,9a17.82,17.82,0,0,1-1.3,2.63l.26-2.68c-1.62,1.12-3.27,6.29-2.6,8.23l1.58-2.83.34.18c-.21,1.91-.53,3.81-.59,5.75s.15,3.77.25,5.66l.77.09c.14-1.67.28-3.33.41-5l.36,0c.13.83.28,1.66.39,2.49.31,2.43,1.06,3,2.46,1.6,2.39-2.37,4.56-5.08,7-7.35,4.84-4.48,7.43-11.19,11-16.9a76.32,76.32,0,0,1,5.73-7.63c1.76-2.16,3.9-2.3,6.34-.66,2.06,1.38,2.14,1.17,2.92-1.49q2.79-9.54,5.73-19c.41-1.32.67-3.07,2.46-2.76.22,0,.46-.72,1-1.62l-2.17.77c1.61-4.49,2.88-8.83,4.64-12.79C388,247.7,393,236.2,398.56,225.18A116.74,116.74,0,0,1,415.21,201a55.34,55.34,0,0,1,4.36-4.18c.38-.34.92-.71,1.35-.61,3.32.79,6.68,1.51,9.6,4.19,1.64,1.5,2.57,5.37,1.78,8.23-.84,3.06-1.94,6-3,8.93-.16.46-.65.7-.95,1.09a6.64,6.64,0,0,0-1.78,5,12.26,12.26,0,0,1-1.32,5.1,61.58,61.58,0,0,1-3,6.21c-.35.65-1,1-1.48,1.57a3.09,3.09,0,0,0-.63,1.07,25.92,25.92,0,0,1-1.07,3.86q-4.1,8.31-8.38,16.46a16.27,16.27,0,0,1-2.14,2.67c-.18.21-.47.4-.49.66-.25,3.37-3.48,3.84-4.3,6.7,5.71-10.36,11.55-20.59,15.47-32.32l-.57-.54c-.87,1.5-1.81,2.94-2.59,4.51-1.21,2.44-2.16,5.11-3.48,7.43-2.37,4.16-4.93,8.14-7.42,12.19-.95,1.55-1.91,3.08-2.86,4.62.47-1.16.86-2.38,1.41-3.46,4.86-9.67,9.91-19.17,14.56-29,2.73-5.75,4.83-12,7.16-18.06a5.09,5.09,0,0,0,.37-2.86c-.52-1.74-.26-2.91.78-3.86-1.17-1.87-1.68-2.24-2.89-1.27-2.45,2-4.76,4.21-7.14,6.32-.37.33-1,1-1.17.81-1.19-.88-1.38.33-1.92,1-1.29,1.47-.65,4.78-3.05,5.17-.17,3.4-2.56,4.76-3.9,7.09-3.48,6-6.75,12.29-9.93,18.59-1.82,3.58-3.28,7.47-5,11.14-.31.66-1.12.92-1.7,1.37h0c.57-1.31,1.1-2.65,1.72-3.93q7.89-16.26,15.8-32.51c.57-1.16,1.23-2.25,1.84-3.37l-.65-.48c-17.57,26.79-29.09,57.86-37.42,91.84,4.24-1.69,3.35-6.84,5.42-9.81l.14,3.86c.92-1.3,1.62-2.28,2.31-3.28,2.81-4.06,5.68-8.08,8.43-12.21,3.14-4.68,6.19-9.46,9.25-14.22,1.9-2.94,3.75-5.92,5.61-8.89-.54,2.48-1.08,5-1.64,7.43-.07.29-.16.68-.34.77-2.66,1.45-2.62,5.62-4.8,7.54a7.77,7.77,0,0,0,.38,1l1.89-2.31a19,19,0,0,1-4.44,8.53,28.81,28.81,0,0,0-3.64,5.92c-3.76,7.59-9,13.47-14.12,19.57-1,1.15-1.74,2.54-2.66,3.75-.67.87-.59,3-2.37,2.2a2.35,2.35,0,0,0-.5,1.34,76.73,76.73,0,0,0,.79,8.29c.36,2,1.68,2.45,3.22,1.07,3.87-3.47,8-6.69,11.37-10.77,6.94-8.32,14-16.51,19.3-26.73,3.73-7.21,9.17-12.52,14.53-17.81,2.5-2.46,5-4.78,8.31-5.83s6.22.74,8.95,3.2a2.5,2.5,0,0,1,.49,3.36c-3,4.67-5.8,9.6-9.1,13.94-5.1,6.74-11.16,12-18.41,15.24-2.08.94-5.28,6.72-4.64,10.91.3,1.9,1.32,2.87,2.7,2.43,3-1,6.17-1.8,8.93-3.43a75.77,75.77,0,0,0,12.17-8.6,52.38,52.38,0,0,0,9.93-11.42c2.46-4,3.8-9.2,5.43-14,.48-1.41,1.07-1.43,2-1.06a6.1,6.1,0,0,1,3.3,6.94c-1,3.23-1.32,7-3.81,9.2-.39.34-.87.57-1.24,1a3.43,3.43,0,0,0-1.08,1.57c-.08.5.45,1.22.7,1.83a5.48,5.48,0,0,0,1.64-1.14c1.91-2.67,3.67-5.51,5.61-8.14,3.31-4.49,6.84-8.72,11.43-11.29a11.58,11.58,0,0,1,4.05-1c.3,0,.72.7,1.09,1.08-.31.3-.58.83-.92.86-3.16.2-5.39,2.2-7.24,5s-4,5.68-5.82,8.71c-1.54,2.59-2.81,5.45-4.15,8.22-2.52,5.23-5.1,10.42-7.45,15.77a63.47,63.47,0,0,0-2.14,7.32c-.45,1.51-.95,3-1.47,4.48-.85,2.46-2.54,3.74-4.19,3.24s-2.86-2.68-3.11-5c.82-.57,1.85-.81,2.07-1.52q2.94-9.54,5.62-19.23c1.06-3.83,1.93-7.76,2.89-11.66-2.94,2.83-4.23,7-5.51,11.24-.38,1.27-1,2.44-1.44,3.65ZM416.19,284a13.64,13.64,0,0,0-2.21,1.84c-2.29,3-4.5,6.09-6.78,9.12a5.16,5.16,0,0,1-1.13.89l-.29-.58,1.58-1.87c-1.75-.47-2.9.94-3.08,2.77a27.1,27.1,0,0,1-1,4.09c1.66,2,2.73,1.84,3.82-.19,1.5-2.79,3.31-5.3,5-7.89.52-.8,1.16-1.48,1.75-2.22l.52.4a7.62,7.62,0,0,1-.61,2.07c-1.46,2.12-3,4.13-4.5,6.22a8.71,8.71,0,0,0-.65,1.76c5.91-.34,24.35-20.09,24.4-26a14.17,14.17,0,0,0-2,.69,32.15,32.15,0,0,0-9.34,7.57,32.09,32.09,0,0,1-3.14,3.14C417.43,286.69,416.55,286.44,416.19,284ZM369.48,300.1c-4.49,1.24-13.14,15.53-12.91,20.89.25,0,.55.07.72-.06,2.89-2.17,5.81-4.29,8.61-6.61a5.3,5.3,0,0,0,1.06-2.59c.55-2.28,1-4.62,1.49-6.92C368.76,303.32,369.1,301.84,369.48,300.1ZM402.65,315c.39-3.59.75-6.95,1.19-11l-2.57,2.33c-.52.47-1.46.85-1.5,1.43a12.33,12.33,0,0,0,.46,4.53C400.55,313.29,401.64,313.94,402.65,315Zm22.79-92.22L428,215C425.44,217.1,424.32,220.31,425.44,222.8Zm-4.58,8.74.11,0c.84-1.61,1.69-3.22,2.51-4.85a5.24,5.24,0,0,0,.19-1.11Z"/><path class="cls-1" d="M545.12,303.28c-.3,1.68-.67,3.33-.87,5-.08.77.34,1.68.29,2.47-.19,3.1-.68,6.17-.63,9.29,0,1.38-1,2.92.44,4.47.31.34-.22,1.75-.21,2.68A62.49,62.49,0,0,1,541.2,347c-.45,1.47-.77,3-1.18,4.64l1.06.24c-2.24,4.46-4.28,9-9.24,9.2-5.48.2-10.44-2.14-13.11-8.68-1.17-2.85-.93-6.73-.64-10,.67-7.61,3.4-14.14,6.41-20.48a123.14,123.14,0,0,1,19.28-28.81c1.84-2.08,1.91-4.87,2.2-7.61.32-3.07.36-6.23.49-9.36a6.81,6.81,0,0,0-.44-1.54,14.86,14.86,0,0,0-2.07,2,54,54,0,0,1-18.53,16.52,18.81,18.81,0,0,1-9.86,2.81c-5.32-.11-8.82-4.27-9-10.77a8.17,8.17,0,0,0-.47-1.67,21.52,21.52,0,0,0-1.79,1.78c-3.73,4.59-7.4,9.26-11.19,13.79a7.72,7.72,0,0,1-3.28,2.45c-1.16.39-3.2.56-3.69-.22a7.86,7.86,0,0,1-1-5.28c1.7-5.67,3.77-11.14,5.81-16.61,1-2.67,2.22-5.18,3.34-7.76l-.42-.57a12.57,12.57,0,0,0-2,1.21,42.46,42.46,0,0,0-7.22,9.1c-2.86,4.41-4.88,9.43-7.29,14.14a55.16,55.16,0,0,0-2.56,7.34c-1.22,3.62-3.32,4.75-6.56,3.53-2-.75-2.38-2.83-1.43-4.84a54.14,54.14,0,0,0,2.43-7.58c.69-2.36,1.11-4.89,2-7.11,1.78-4.44,3.66-8.83,5.75-13,1.23-2.5,4.89-2.61,6.92-.43.93,1,1.43,1,2.29.16,3.09-2.85,6.11-5.89,10.22-6.64a4.34,4.34,0,0,1,1.72-.08c1.82.4,2.38,1.52,1.62,3.43-1.39,3.49-3,6.85-4.32,10.36-1.9,4.91-3.67,9.92-5.46,14.9a16.17,16.17,0,0,0-.32,2.61,12.68,12.68,0,0,0,2.44-1.69c4-4.86,7.88-10,12.07-14.64,4-4.41,5.93-10.58,9-15.74,4.89-8.18,11.12-14.67,17.79-20.51,3.68-3.23,7.91-4.42,12.58-.57,2.28,1.87,2.67,3.13,1.25,5.6-5.45,9.46-11.69,18-19.89,24a39.72,39.72,0,0,1-6,3.58c-3.24,1.56-5.92,6.37-5.8,10.84.06,2.12,1,3.45,2.6,3a37.25,37.25,0,0,0,9.12-3.45,70.64,70.64,0,0,0,12-8.49,75.64,75.64,0,0,0,10.65-12.15c1.75-2.46,2.32-6.2,3.47-9.32,3.86-10.45,10-18.33,18.07-23.82,1.53-1,3-1.28,4.53.73,1,1.32,2.46,2.16,3.52,3.45a2.81,2.81,0,0,1-.09,2.28c-3.56,2.47-7.21,4.78-10.84,7.14l-.15-1a37.29,37.29,0,0,0-3.82,3,17.66,17.66,0,0,0-2.77,3.72,42.37,42.37,0,0,0-2.55,5.49c-1.91,5-3.74,10-5.71,15.28l-1.14-5c-1.7,3.48-3,15.13-2.16,17.39,2.32-.76.75-4,2.07-5.64l.06,3.25c2.65-2.38,5.13-4.38,7.4-6.68a222.2,222.2,0,0,1,24.92-21.53,10.74,10.74,0,0,0,3.48-5c3.19-9.79,8.91-16.81,15.54-22.89a24.31,24.31,0,0,1,2.73-1.91c1.61-1.1,3.14-1.67,4.86.58,1,1.27,2.37,2,3.4,3.23s.76,2.11-.47,2.86c-3.41,2.08-6.73,4.37-10.23,6.66,0,0-.22-.44-.57-1.14-2.25,2.42-4.54,4.65-6.6,7.18a15.36,15.36,0,0,0-2.17,4.47c-1.54,4.28-3,8.65-4.44,13-.35,1-.81,2-1.35,3.26-.36-2.19-.65-3.92-.95-5.72-1.58,1.72-3.32,14.86-2.2,18.72l1.59-4.11.73.81c11.44-10.83,22.67-22,35.61-30.39l.38.54c-.19.34-.3.81-.57,1-12.38,8.56-23.46,19.22-34.09,30.59a7.82,7.82,0,0,0-2.36,6.35c-2.72.07-3.44,1.33-2.7,7.7.13-.72.2-1.47.39-2.16a7.12,7.12,0,0,1,.67-1.32,9.5,9.5,0,0,1,.66,1.46c.57,2-.07,3.13-1.65,3.44-.25.05-.54,0-.75.09-.46.28-.88.66-1.32,1a16.86,16.86,0,0,1-.3-2.6c.05-1.55.25-3.08.39-4.62l-.47-.45c-2.73,3.55-5.57,7-8.15,10.69a69.26,69.26,0,0,0-6.53,10.71c-1.73,3.78-2.75,8.13-4,12.28a65.87,65.87,0,0,0-2.9,16.76,13.58,13.58,0,0,0,3.65,9.94c2.07,2.27,5.65,1.59,7.24-1.88a66.23,66.23,0,0,0,5-13.71c1.86-8.88,3-18.07,4.41-27.15.41-2.65.56-5.39.89-8.07,0-.4.44-.7.68-1,.21.51.67,1.11.61,1.51-.75,4.79-.62,9.78-1.25,14.59a13,13,0,0,0,.25,2.62l-.23.15c.09,1.69.17,2.88.22,4.07a61.7,61.7,0,0,1-3.15,21.05c-.36,1.18-.6,2.44-.93,3.82l.67,0c-.24,3.64-4.33,8.77-7.78,9.27-5.41.79-10.85-1.57-14.12-8.17-1.67-3.36-1.1-6.89-.75-10.24.8-7.74,3.51-14.43,6.61-20.89a124.1,124.1,0,0,1,19.2-28.59c1.89-2.15,2.06-5.07,2.16-7.88.2-6.17.59-12.23,2.16-18a5.67,5.67,0,0,0-.18-1.57,68.85,68.85,0,0,0-6.45,4.8c-8.54,8.05-17,16.23-25.47,24.37a7,7,0,0,0-2.11,6.15c-4.59-.06-2.51,4.72-3.35,7.4l.47.33c.19-.65.36-1.31.57-1.95s.42-1,.63-1.54a9.93,9.93,0,0,1,.69,1.7c.36,1.62.06,2.69-1.38,3.08-.68.18-1.21,1-1.81,1.5-.34-.73-1-1.51-1-2.2,0-1.83.33-3.62.52-5.43a4.82,4.82,0,0,0-1.57,1.36c-5.59,5.59-9.78,12.71-13.78,20-1.27,2.3-1.55,5.45-2.53,8.06a74.65,74.65,0,0,0-4.12,18.7,19.65,19.65,0,0,0,.71,6.82c.75,2.72,2.14,5.46,4.59,6.16s4.68-.66,5.74-3.29a90.35,90.35,0,0,0,4.92-14,218.06,218.06,0,0,0,5-32.95C543.66,305.15,543.71,303.63,545.12,303.28Zm-3.73-54.16c-2.28,1.3-4.35,2.09-6,3.53-2.92,2.48-5.6,5.37-8.39,8.08-1.18,1.16-2.14,1.09-2.68-1.59a49.26,49.26,0,0,0-9.61,12l-.7-.69,1.58-1.53-.55-.78a5,5,0,0,0-1.37.62c-1.56,1.35-1.21,3.3-1.1,4.88a2.6,2.6,0,0,0-.47,2c0,.37.5,1,.7,1a4.3,4.3,0,0,0,1.91-.55c.29-.16.38-.76.58-1.14.6-1.1,1.18-2.23,1.84-3.27s1.56-2.31,2.39-3.42,1.68-2.1,2.52-3.15l.56.57c-1.08,3.89-4.15,6.1-5.89,9.7C522,275.87,540.28,256.6,541.39,249.12ZM512,279.23l-2.69,2.33c-.49.43-1.37.81-1.38,1.32a14.71,14.71,0,0,0,.53,4.73c.31,1,1.39,1.63,2.33,2.67C511.2,286.72,511.58,283.26,512,279.23Zm-40.56,13.3-2.77,8.75C470.93,299.6,472.44,294.87,471.46,292.53Z"/><path class="cls-1" d="M257,338.92c-2.52,4.46-5.07,8.89-7.55,13.38-4.43,8-8.74,16.1-13.26,24a19,19,0,0,1-4.52,5.27c-2.51,2-5.45,1.57-8.13-.59-2.46-2-2.32-5.38-2.64-8.32-.08-.71,1-1.39,1.46-2.21.53-1,.92-2.16,1.72-4.13l.25,5.83.83.3c.36-2,.6-4.09,1.09-6,.69-2.74,1-6,2.46-7.93,2.26-3,1.91-7.09,3.24-10.4,1.13-2.81,2-5.8,3-8.68,1.7-4.71,3.08-9.7,5.27-14,2.43-4.73,3-10.51,5.4-15.21.91-1.76.91-4.29,1-6.65-2.28,2.4-2.71,6.79-6.67,7.38a63,63,0,0,1,2-7c3.54-8.39,7.22-16.67,10.83-25a29,29,0,0,0,1.7-4.45c.62-2.46,1.92-2.93,3.76-1.86,4.46,2.61,5.86,4,4,8.7-2.09,5.38-4.36,10.63-6.68,15.85-1.34,3-2.92,5.83-4.36,8.77-.13.27.16.84.1,1.21-.17,1-.19,2.6-.69,2.81-2.44,1.07-3.28,3.79-4.22,6.22-2.64,6.78-5.08,13.7-7.51,20.62-2.36,6.71-4.85,13.37-6.84,20.29a75.27,75.27,0,0,0-3.32,17.11l.76.65c2.09-2.83,4.35-5.5,6.24-8.54q16.71-27,33.27-54.06a73.85,73.85,0,0,0,3.36-6.58c1.49-3.1,2.17-3.24,5.59-.92a5,5,0,0,1,1.89,6.18c-1.38,3.79-2.77,7.6-4.48,11.15a297.17,297.17,0,0,0-17.48,45.54c-1.29,4.43-1.76,9.32-2.55,14a19.47,19.47,0,0,0,.18,3.25c2-1.5,3.74-2.28,4.88-3.78,5-6.56,9.94-13.14,14.58-20.06,8.1-12.08,13.54-26.42,19.92-40,.72-1.53,1.22-3.25,1.82-4.88l1,.6c-1.06,3-2,6.14-3.22,9.09s-2.72,6-4,9-2.55,6.13-4.08,9.81c3.92-2,3.45-8.29,7.19-9.43l.71.59c-1.48,4.24-2.77,8.61-4.48,12.69A117.73,117.73,0,0,1,284,360.22a168.8,168.8,0,0,1-8.91,15c-3.74,5.32-7.26,11.15-12.82,13.9a13.76,13.76,0,0,1-7.61,1.52c-3.6-.48-5.75-4.14-6.84-8.55-1.75-7.13.67-12.94,2.25-18.89,1.81-6.83,4.39-13.27,6.62-19.89.41-1.22.74-2.49,1.1-3.74Zm-6.1,42.89,1.05,0c-1.21-1.93,1.32-4.11-.43-6l-1,0C250.69,377.8,250.8,379.8,250.92,381.81Z"/><path class="cls-1" d="M298.13,314.7c.77-2.86,1.39-5.82,2.36-8.56,1.64-4.6,3.5-9.05,5.26-13.57,0-.08,0-.22.09-.27,3-2.83,2.49-7.82,3.81-11.68,2.45-7.12,4.5-14.5,6.46-21.9,1-3.74,1.19-7.9,2.23-11.61a27.37,27.37,0,0,0,.32-11.65c-.18-1.16-.74-2.27-1-3.42-.25-.95-.72-2.65-.52-2.77.9-.53,2.13-1.18,3-.78,2.47,1.14,3.74,3.78,3.89,6.8.39,7.67.66,15.3-2.31,22.13-1.23,2.83-1.74,6.19-2.66,9.27-1.31,4.41-2.54,8.84-6,11.53-.91.71-1.12,2.68-1.63,4.08q-5.77,15.54-11.54,31.07a13.32,13.32,0,0,1-1,1.78Z"/><path class="cls-1" d="M316.75,306.57c1.61-3.58,2.95-6.89,4.59-9.94.41-.76,1.77-.83,2.73-.87a3.25,3.25,0,0,1,.87,2.1,20.92,20.92,0,0,1-7,9C317.83,306.89,317.66,306.78,316.75,306.57Z"/><path class="cls-1" d="M336.72,295.54,343.55,280l.92.66c-2,4.91-4,9.83-6,14.71C338.34,295.61,337.69,295.46,336.72,295.54Z"/><path class="cls-1" d="M333.59,305.29l.84-4.82C336.4,302.16,336.28,303,333.59,305.29Z"/><path class="cls-1" d="M434.91,309.41l-1.11,6.17-1-.54q1.08-2.79,2.18-5.58Z"/><path class="cls-1" d="M307.47,301,304,310.48l-.67-.45,3.69-9.32Z"/><path class="cls-1" d="M302.71,313.24l-2.16,6.54-.79-.49c.82-2.15,1.63-4.3,2.45-6.46Z"/><path class="cls-1" d="M380.85,284.18l-3.8,12.91-.51-.29q1.83-6.53,3.67-13.06Z"/><path class="cls-1" d="M389.87,256.76c.11.67.48,1.51.3,2-1.05,2.86-2.23,5.64-3.37,8.44l-.55-.36q1.81-5,3.62-10.06Z"/></svg>