<svg id="レイヤー_1" data-name="レイヤー 1" xmlns="http://www.w3.org/2000/svg" viewBox="0 0 2834.65 2014.46">
  <title>wilderness_logo</title>
  <g>
    <g>
      <path d="M821,1593.45c-.23,4.71-2.39,17.77-3.26,22.54l-3.91,21.68H793.08l-12.35-62.14h15.14l6.14,31.86a128.35,128.35,0,0,1,2.38,17.61h.79a175.92,175.92,0,0,1,3-17.61l6.62-31.86h14.09l6.93,31.86a130,130,0,0,1,2.88,17.61h.79a152.89,152.89,0,0,1,2.16-17.61l5.41-31.86h15l-12.36,62.14H829.72l-4.46-22c-.88-4.38-3.19-17.44-3.42-22.23Z" style="fill: #231815"/>
      <path d="M916.57,1637.67H901.83v-62.14h14.74Z" style="fill: #231815"/>
      <path d="M999.67,1626.52v11.15H961.18v-62.14h14.74v51Z" style="fill: #231815"/>
      <path d="M1060.3,1575.53c17.2,0,28,9.48,28,30.36,0,22.13-11.79,31.78-28.75,31.78h-20v-62.14Zm0,51.78c7.88,0,13.31-5.58,13.31-20.71,0-14.82-5.43-20.71-14.82-20.71h-5v41.42Z" style="fill: #231815"/>
      <path d="M1167.77,1626.92v10.75h-38.09v-62.14h37.37v10.75h-23V1601h20.72v10.36H1144v15.53Z" style="fill: #231815"/>
      <path d="M1238,1637.67l-9.32-22.71h-6v22.71h-14.33v-62.14h20.94c12.82,0,21.9,5.82,21.9,18.25,0,8.84-3.81,14-10,16.64l13.38,27.25Zm-15.29-33.3h5.09c5.67,0,9.1-2.47,9.1-9.08,0-6.37-3.43-9.4-9.1-9.4h-5.09Z" style="fill: #231815"/>
      <path d="M1343.77,1575.53v62.14H1323l-13.22-37.05a102,102,0,0,1-3.58-12.74h-.71c1,10.19,1.5,24.54,1.5,33.21v16.58h-12.89v-62.14h20.7l13.23,37a102.36,102.36,0,0,1,3.66,12.74h.72c-1-10.28-1.59-21.19-1.59-31.54v-18.25Z" style="fill: #231815"/>
      <path d="M1426.46,1626.92v10.75h-38.09v-62.14h37.37v10.75h-23V1601h20.72v10.36h-20.72v15.53Z" style="fill: #231815"/>
      <path d="M1477.78,1617.11c1,7,4.22,10.84,10.83,10.84,3.74,0,6.53-1.91,6.53-5.89,0-4.47-2.7-6.22-12.5-9.64-11.31-4-17.13-9.49-17.13-19,0-11.7,8.28-18.72,20.87-18.72,12.75,0,20.55,6.38,22.31,18.25l-14.18,3c-.57-7.49-3.5-11.39-8.77-11.39-4.06,0-6.29,2.55-6.29,6.36,0,4.22,3,6.46,11.87,9.32,13.22,4.23,18.8,9.17,18.8,19.37,0,11.55-8.36,19-22.38,19-14.67,0-22.94-6.62-24.62-19.6Z" style="fill: #231815"/>
      <path d="M1561.43,1617.11c1,7,4.22,10.84,10.83,10.84,3.74,0,6.54-1.91,6.54-5.89,0-4.47-2.71-6.22-12.51-9.64-11.31-4-17.13-9.49-17.13-19,0-11.7,8.28-18.72,20.87-18.72,12.75,0,20.55,6.38,22.31,18.25l-14.18,3c-.57-7.49-3.51-11.39-8.77-11.39-4.07,0-6.29,2.55-6.29,6.36,0,4.22,2.94,6.46,11.87,9.32,13.22,4.23,18.8,9.17,18.8,19.37,0,11.55-8.37,19-22.38,19-14.67,0-22.94-6.62-24.63-19.6Z" style="fill: #231815"/>
      <path d="M1782.51,1603.65a64,64,0,0,1,.32,6.77c0,17.84-8.68,28.13-24.69,28.13-17.7,0-26.85-10.84-26.85-32,0-19.68,10-31.87,26.13-31.87,13,0,21.42,7,23.66,19.68l-14.82,3.35c-.71-8.69-3.59-12.67-9.09-12.67-6.92,0-10.75,7.41-10.75,21,0,15,4.14,22.54,12.34,22.54,6.3,0,9.41-4.86,9.49-15h-11.39v-10Z" style="fill: #231815"/>
      <path d="M1872.39,1637.67h-14.74l-3.58-14.58h-19l-3.51,14.58h-13.62l15.86-62.14h22.7Zm-25.82-45.41a74.11,74.11,0,0,1-1.75-8.53h-.4c-.48,2.88-1.12,5.74-1.83,8.53l-4.86,19.68h13.62Z" style="fill: #231815"/>
      <path d="M1941.05,1637.67l-9.31-22.71h-6v22.71h-14.33v-62.14h21c12.82,0,21.9,5.82,21.9,18.25,0,8.84-3.82,14-10,16.64l13.39,27.25Zm-15.29-33.3h5.1c5.66,0,9.09-2.47,9.09-9.08,0-6.37-3.43-9.4-9.09-9.4h-5.1Z" style="fill: #231815"/>
      <path d="M2017.93,1575.53c17.21,0,28,9.48,28,30.36,0,22.13-11.79,31.78-28.76,31.78h-20v-62.14Zm0,51.78c7.89,0,13.32-5.58,13.32-20.71,0-14.82-5.43-20.71-14.82-20.71h-5v41.42Z" style="fill: #231815"/>
      <path d="M2125.42,1626.92v10.75h-38.08v-62.14h37.36v10.75h-23V1601h20.72v10.36h-20.72v15.53Z" style="fill: #231815"/>
      <path d="M2215.68,1575.53v62.14H2195l-13.22-37.05a100.34,100.34,0,0,1-3.58-12.74h-.72c1,10.19,1.51,24.54,1.51,33.21v16.58h-12.9v-62.14h20.71l13.22,37a100.71,100.71,0,0,1,3.67,12.74h.72c-1-10.28-1.6-21.19-1.6-31.54v-18.25Z" style="fill: #231815"/>
    </g>
    <g>
      <path d="M2319.74,1191c2.1-12.91,3.42-26.19,6.46-38.65,6.73-27.63,14.33-54.85,23.24-82.47.4,2.93,1.63,6.25,1.06,8.73-7.36,32-14.76,64-22.72,95.79-1.52,6.06-5.54,10.91-8.4,16.32Z" style="fill: #231815"/>
      <path d="M2352.38,1056.37c.47,2.6.95,5.2,1.42,7.8l-2.48.31-1.08-7.84Z" style="fill: #231815"/>
      <path d="M2356.34,1045.07c-.26.82-.52,1.64-1.64,5.14l.06-6Z" style="fill: #231815"/>
      <path d="M2385.57,890.63c-.05-.56-.1-1.12-.14-1.68C2385.48,889.51,2385.53,890.07,2385.57,890.63Z" style="fill: #231815"/>
      <path d="M1558.36,1127.14c2.45-10.88,4.83-21.79,7.4-32.61,1.1-4.68,2.6-9.17,3.91-13.74l-2.33-2.18c-7.15,7.87-15.51,14.55-21.24,23.83-16.95,27.44-41.7,42.19-65.23,58.7s-47.9,29.48-77.27,29.38c-23.89-.08-54.45-30-49.34-60.54.76-4.58-1.56-10.3-3.16-19.55-7.85,10.32-14.51,17.78-19.95,26.45-21.47,34.23-45.94,64.71-73.75,91.09-9.73,9.24-19.21,19.23-30.05,26.32-19.56,12.78-39.32,7.12-51.24-14.17-3.72-6.66-4.44-15.86-5.95-24-1-5.45-1-11.07-1.63-19.37-6.2,3.67-10.18,6.9-14.66,8.48-10.66,3.77-21.31,8.51-32.44,9.54-10.37,1-20.91-3.34-27.56-16.77-3-6-5.95-6.93-10.07-1.46-12.52,16.65-24.62,34.06-38.73,48.54-14.23,14.63-31.74,22.49-52.35,15-13-4.75-22.26-20.09-23.57-36.73-.54-6.85-1.69-13.7-2.57-20.55l-3-1c-10.86,20.51-21.34,41.37-32.69,61.44-15.84,28-30.53,57.67-57.51,72.14-14.39,7.72-32.81,1.94-40.62-14.86-4-8.73-5.37-20.93-4.4-30.62,2.74-27.68,6.94-54.66,20.68-77.36,7.21-11.92,10.17-27.85,16-41.28,4.81-11.15,28.57-12.6,35.57-1.9,2.55,3.89,3.26,12.58,1.58,16.9-8.77,22.62-19.25,44.1-27.78,66.87-5.58,14.92-9,31.28-13,47.19-.82,3.27.2,7.44.58,15.68,12.05-12.27,22.92-20.65,31-32.09Q930,1231.44,965,1176.79c4.4-6.85,4.15-18.2,7.1-26.83,3.33-9.71,8.38-18.36,11.68-28.08,3.48-10.24,7.58-18.06,18.42-15.87,1.4.28,3.47-1.41,4.32-3,10.17-19,20.78-37.58,29.88-57.37,2.94-6.4,3.75-11.23,10.26-3.83,15.09-22.13,30.69-42.6,44.07-65.18,26.08-44,51.73-88.45,76-134.07,17.83-33.49,33.43-68.93,49.5-103.92,4.19-9.13,6.68-19.65,9.37-29.83.94-3.57.11-8-1.29-12.79-47.68,60.42-86.59,128.53-118.45,203.34l-3.38-1.51c1.21-9.18,2.65-18.31,3.51-27.58.26-2.81-1-6-1.63-9.06-1.84,1.88-4.21,3.32-5.41,5.73-3.33,6.69-6.18,13.78-9.92,22.3-4.51-20.92,2.23-33.68,9.39-47.69,13.66-26.69,23.68-56.53,38-82.58,15.7-28.6,34-55,52.13-81.26,15.47-22.41,38.48-15,56.86-.43,9,7.07,8.08,17.45,5.16,27.4C1224,795.23,1179,871,1133.58,946.13c-30.66,50.76-64.74,98.21-97,147.38-10.68,16.25-20.8,33.09-30.76,50-2.6,4.42-3.67,10.3-7.25,14.67.46-4.73.92-9.47,1.45-15-9,6.24-18.22,35-14.46,45.85l8.8-15.74,1.89,1c-1.17,10.67-3,21.22-3.31,32-.32,10.39.86,21,1.39,31.58l4.31.48,2.31-27.84,2,.19c.72,4.64,1.55,9.27,2.16,13.92,1.76,13.55,5.92,16.68,13.75,8.91,13.33-13.23,25.41-28.34,39.09-41,26.95-25,41.43-62.37,61.52-94.19,9.62-15.23,20.83-28.94,31.95-42.56,9.84-12.05,21.77-12.81,35.4-3.67,11.45,7.68,11.92,6.51,16.25-8.32q15.54-53.24,31.93-106c2.3-7.39,3.74-17.14,13.73-15.41,1.22.22,2.59-4,5.6-9l-12.14,4.28c9-25,16.08-49.22,25.91-71.32,28.32-63.66,56.16-127.82,87.23-189.23,25.48-50.33,57.57-94.59,92.87-134.84,7.5-8.55,16-15.79,24.31-23.29,2.09-1.89,5.12-4,7.52-3.43,18.53,4.39,37.27,8.41,53.53,23.35,9.14,8.39,14.34,30,9.93,45.91-4.71,17.05-10.82,33.38-16.64,49.82-.9,2.55-3.63,3.89-5.29,6-5.85,7.59-10.74,14.74-9.92,27.84.6,9.62-3.77,19.62-7.35,28.44-4.9,12.08-10.9,23.41-16.94,34.62-2,3.62-5.62,5.68-8.28,8.75a16.61,16.61,0,0,0-3.48,6c-2.13,7.12-2.92,15.26-6,21.54q-22.8,46.32-46.7,91.75c-3,5.79-7.93,10-12,14.91-1,1.18-2.6,2.24-2.71,3.64-1.39,18.83-19.39,21.46-24,37.36,31.82-57.73,64.39-114.78,86.23-180.2l-3.14-3c-4.85,8.35-10.11,16.36-14.45,25.13-6.74,13.59-12,28.47-19.41,41.43-13.2,23.19-27.5,45.38-41.36,68-5.3,8.62-10.64,17.18-16,25.77,2.59-6.46,4.78-13.25,7.83-19.32,27.11-53.88,55.31-106.88,81.24-161.69,15.17-32.08,26.92-66.89,39.87-100.69,1.8-4.69,3.46-11.27,2.07-15.92-2.89-9.72-1.44-16.27,4.38-21.54-6.51-10.42-9.4-12.53-16.12-7.1-13.66,11-26.53,23.47-39.79,35.23-2.09,1.87-5.41,5.41-6.56,4.55-6.61-5-7.69,1.82-10.69,5.25-7.19,8.24-3.6,26.66-17,28.88-.94,18.92-14.25,26.52-21.72,39.51-19.4,33.69-37.62,68.51-55.4,103.64-10.13,20-18.25,41.67-27.85,62.14-1.73,3.68-6.26,5.14-9.49,7.62v0c3.19-7.32,6.15-14.81,9.59-21.92q44-90.72,88.1-181.29c3.16-6.48,6.84-12.54,10.28-18.8q-1.83-1.34-3.64-2.69c-98,149.41-162.23,322.62-208.66,512.13,23.62-9.43,18.69-38.14,30.21-54.68.23,6.08.46,12.15.81,21.48,5.11-7.26,9-12.72,12.84-18.25,15.71-22.66,31.67-45.07,47.05-68.08,17.47-26.15,34.49-52.77,51.58-79.32,10.55-16.39,20.86-33,31.28-49.56-3,13.82-6.07,27.65-9.17,41.43-.36,1.6-.88,3.76-1.89,4.31-14.83,8.07-14.64,31.29-26.78,42-.18.17.82,2.24,2.13,5.66l10.51-12.86c-4.13,19.62-13.42,34.17-24.74,47.56-8,9.45-14.46,21.19-20.3,33-21,42.35-50.34,75.15-78.72,109.14-5.37,6.43-9.71,14.14-14.85,20.88-3.73,4.89-3.24,16.54-13.19,12.29-.43-.19-3,4.84-2.79,7.48,1.07,15.41,1.67,31,4.41,46.2,2,11.18,9.34,13.71,17.94,6,21.58-19.35,44.46-37.29,63.43-60.06,38.65-46.39,78-92.07,107.57-149.07,20.83-40.18,51.14-69.76,81.06-99.28,13.9-13.72,28.08-26.65,46.3-32.5,19-6.09,34.7,4.1,50,17.83,5.39,4.86,7,12,2.69,18.74-16.79,26-32.34,53.53-50.7,77.74-28.49,37.56-62.27,66.9-102.66,85-11.64,5.22-29.47,37.43-25.87,60.82,1.63,10.58,7.35,16,15,13.55,16.9-5.43,34.41-10,49.8-19.14,23.58-13.94,47-29.18,67.86-47.94,20.39-18.31,40.31-39,55.36-63.67,13.74-22.49,21.19-51.29,30.28-78,2.69-7.9,6-8,11.32-5.91,13.27,5.14,23,23.86,18.43,38.66-5.57,18-7.35,39.12-21.23,51.29-2.21,1.94-4.89,3.19-6.92,5.36-2.39,2.55-5.5,5.32-6,8.8-.44,2.77,2.5,6.75,3.94,10.19,3.08-2.08,6.92-3.32,9.12-6.39,10.63-14.89,20.43-30.71,31.25-45.38,18.47-25,38.14-48.62,63.78-63,6.73-3.76,14.9-4.41,22.58-5.49,1.63-.23,4,3.91,6.06,6-1.7,1.65-3.23,4.62-5.13,4.74-17.64,1.15-30,12.3-40.38,27.73-10.84,16.17-22.36,31.67-32.41,48.58-8.59,14.46-15.7,30.36-23.16,45.86-14,29.15-28.44,58-41.55,87.92-5.47,12.48-7.91,27.21-11.94,40.79-2.51,8.45-5.3,16.75-8.17,25-4.78,13.7-14.16,20.84-23.39,18.09-8.73-2.6-15.93-15-17.34-27.81,4.56-3.18,10.34-4.53,11.56-8.47q16.41-53.2,31.34-107.23c5.91-21.34,10.77-43.24,16.13-65-16.4,15.77-23.59,39.13-30.74,62.64-2.15,7.09-5.32,13.6-8,20.38ZM1453.59,985c-5.19,4.23-9.4,6.46-12.29,10.24-12.79,16.75-25.15,34-37.81,50.89-1.64,2.19-4.18,3.33-6.31,5-.54-1.08-1.09-2.15-1.64-3.22l8.84-10.46c-9.78-2.64-16.17,5.26-17.19,15.44-.75,7.49-3.61,14.4-5.86,22.82,9.27,10.93,15.24,10.27,21.33-1.06,8.34-15.54,18.45-29.53,28-44,2.95-4.46,6.52-8.26,9.81-12.36l2.86,2.2c-1.09,3.9-1.4,8.63-3.4,11.55-8.1,11.83-16.81,23-25.06,34.68-1.61,2.27-2.16,5.71-3.62,9.82,33-1.88,135.77-112,136-145.14-4,1.35-7.79,2.1-11.16,3.83-19.64,10.09-36.67,24.7-52,42.24a185.46,185.46,0,0,1-17.53,17.49C1460.51,1000.18,1455.62,998.79,1453.59,985Zm-260.44,90c-25,6.92-73.3,86.6-72,116.46,1.39-.08,3,.41,4-.33,16.12-12.09,32.38-23.95,48-36.88,3.25-2.68,4.64-9.2,5.9-14.42,3.07-12.72,5.54-25.73,8.3-38.61C1189.15,1092.89,1191,1084.64,1193.15,1075Zm185,83.16c2.15-20,4.17-38.74,6.59-61.19-6.6,6-10.44,9.48-14.3,13-2.93,2.65-8.18,4.78-8.37,8-.5,8.22-.06,17.46,2.55,25.27C1366.37,1148.49,1372.45,1152.12,1378.12,1158.12Zm127.06-514.2c5-15.15,9.31-28.11,14.39-43.46C1505.2,612.15,1498.9,630.05,1505.18,643.92Zm-25.53,48.74.58.24c4.69-9,9.42-18,14-27.08.58-1.15.51-2.84,1-6.17Z" style="fill: #231815"/>
      <path d="M2172.53,1092.66c-1.68,9.36-3.79,18.59-4.86,28.13-.48,4.29,1.87,9.35,1.6,13.77-1.05,17.3-3.77,34.37-3.49,51.77.13,7.69-5.61,16.31,2.44,25,1.73,1.86-1.26,9.75-1.16,15,.75,38.82-5.74,75.08-16.44,110-2.5,8.17-4.27,16.75-6.56,25.87l5.9,1.31c-12.48,24.89-23.84,50.33-51.49,51.33-30.59,1.11-58.26-11.93-73.14-48.38-6.49-15.9-5.18-37.56-3.57-55.61,3.79-42.42,19-78.84,35.78-114.21,28.88-60.9,65.77-113.35,107.48-160.62,10.25-11.62,10.68-27.2,12.27-42.44,1.79-17.16,2-34.75,2.75-52.19.08-1.91-1.12-4.06-2.45-8.58-4.56,4.39-8.73,7.15-11.58,11.33-28,41.08-63.72,69.57-103.3,92.16-17.24,9.84-35.11,16-55,15.64-29.63-.61-49.18-23.81-50.27-60.07-.07-2.42-1.33-4.93-2.6-9.31-3.9,3.83-7.25,6.52-10,9.93-20.8,25.63-41.27,51.67-62.36,76.92-5,6-11.49,11.41-18.29,13.67-6.46,2.15-17.87,3.09-20.62-1.28-4.75-7.54-8-21.59-5.7-29.43,9.45-31.62,21-62.1,32.36-92.6,5.54-14.87,12.38-28.87,18.63-43.26-.77-1-1.54-2.11-2.32-3.16-3.72,2.21-7.81,3.82-11.11,6.72-15.87,14-28.05,31.89-40.25,50.74-15.93,24.61-27.19,52.57-40.66,78.87-6.31,12.32-9.65,27.17-14.28,40.91-6.79,20.15-18.48,26.46-36.58,19.65-11.1-4.17-13.27-15.74-8-27,6.06-12.87,9.37-28,13.57-42.27,3.85-13.13,6.2-27.25,11.12-39.6,9.9-24.81,20.41-49.26,32-72.76,6.89-13.94,27.3-14.55,38.6-2.36,5.18,5.59,8,5.31,12.78.88,17.24-15.88,34.09-32.84,57-37.06,3.12-.57,6.44-1.07,9.59-.39,10.12,2.19,13.24,8.43,9,19.12-7.74,19.44-16.53,38.15-24.07,57.72-10.57,27.43-20.45,55.32-30.44,83.13-1.06,3-.88,6.72-1.8,14.5,6.13-4.13,10.63-5.81,13.61-9.4,22.54-27.1,44-55.66,67.34-81.62,22.17-24.62,33-59,50.23-87.78,27.26-45.59,62-81.8,99.17-114.37,20.52-18,44.12-24.64,70.17-3.18,12.69,10.44,14.9,17.45,7,31.25-30.37,52.77-65.21,100.09-110.91,133.57a215.49,215.49,0,0,1-33.64,20c-18,8.72-33,35.54-32.3,60.43.32,11.86,5.35,19.26,14.45,16.74,17.4-4.81,35.14-10,50.87-19.22,23.31-13.66,46.46-28.64,67-47.34a421.54,421.54,0,0,0,59.41-67.77c9.71-13.73,12.91-34.54,19.35-52,21.53-58.29,55.47-102.19,100.75-132.84,8.51-5.75,16.54-7.11,25.26,4.09,5.72,7.36,13.68,12.07,19.6,19.25,1.73,2.1,1.36,11.43-.47,12.7-19.86,13.8-40.2,26.65-60.48,39.8-.14-.87-.48-3.2-.83-5.54-7.25,5.56-14.86,10.24-21.27,16.66a96,96,0,0,0-15.47,20.73,232.93,232.93,0,0,0-14.19,30.6c-10.69,27.72-20.9,55.77-31.86,85.2l-6.36-27.73c-9.47,19.38-16.68,84.34-12.06,96.94,12.94-4.24,4.21-22.14,11.54-31.44.12,6.23.22,11.35.36,18.13,14.78-13.27,28.62-24.4,41.26-37.28,43.64-44.44,90.5-83.43,138.92-120,8.25-6.24,15.82-16.82,19.44-27.92,17.8-54.61,49.68-93.73,86.62-127.64,4.64-4.26,10.15-7.15,15.26-10.64,9-6.14,17.49-9.33,27.1,3.25,5.38,7,13.21,11.2,18.94,18s4.23,11.77-2.63,16c-19,11.63-37.54,24.37-57,37.17-.09-.17-1.23-2.45-3.18-6.36-12.56,13.47-25.34,25.93-36.79,40-5.41,6.65-9,16-12.15,24.89-8.56,23.89-16.42,48.23-24.71,72.3-2,5.68-4.54,11-7.54,18.14-2-12.18-3.64-21.81-5.33-31.86-8.76,9.57-18.51,82.86-12.26,104.36l8.86-22.88,4.08,4.5c63.78-60.38,126.44-122.94,198.56-169.46l2.13,3c-1,1.88-1.68,4.52-3.15,5.54-69.08,47.77-130.81,107.21-190.1,170.58-8.77,9.37-14.42,20-13.18,35.41-15.18.41-19.17,7.44-15,43,.69-4,1.1-8.23,2.18-12.07.76-2.7,2.44-4.9,3.71-7.33,1.26,2.7,2.9,5.27,3.69,8.1,3.14,11.26-.38,17.46-9.21,19.23-1.37.28-3-.23-4.18.47a85.42,85.42,0,0,0-7.36,5.55c-.61-4.85-1.84-9.81-1.68-14.53.3-8.65,1.42-17.16,2.19-25.74l-2.64-2.51c-15.21,19.8-31.07,38.91-45.46,59.61-13.13,18.87-26.5,38-36.4,59.69-9.65,21.09-15.32,45.34-22.25,68.46-8.94,29.77-15,60.78-16.18,93.46a75.92,75.92,0,0,0,20.37,55.47c11.54,12.63,31.52,8.83,40.35-10.49,11.08-24.25,22.45-49.34,28.14-76.46,10.38-49.52,16.86-100.73,24.59-151.37,2.26-14.8,3.1-30.08,4.94-45,.27-2.23,2.48-3.86,3.8-5.77,1.2,2.83,3.74,6.14,3.39,8.43-4.15,26.66-3.45,54.51-7,81.32-.53,4,.77,8.67,1.39,14.6l-1.24.82c.5,9.48.92,16.11,1.18,22.74,1.63,41.7-5.92,80.22-17.52,117.38-2.06,6.56-3.36,13.56-5.23,21.3l3.75-.12c-1.33,20.29-24.13,48.88-43.35,51.69-30.17,4.41-60.55-8.77-78.77-45.55-9.29-18.74-6.12-38.45-4.18-57.11,4.49-43.18,19.56-80.47,36.85-116.47,29-60.3,65.58-112.5,107.07-159.46,10.57-12,11.51-28.25,12-43.91,1.16-34.38,3.33-68.18,12.09-100.16.46-1.68-.43-4.07-1-8.72-12.83,9.43-25.29,16.72-35.95,26.76-47.63,44.86-94.76,90.48-142,135.89-8.57,8.23-13.4,19-11.76,34.24-25.62-.32-14,26.34-18.7,41.28l2.64,1.84c1-3.62,2-7.31,3.17-10.84,1-3,2.34-5.76,3.53-8.63,1.32,3.17,3.12,6.23,3.85,9.53,2,9,.33,15-7.73,17.13-3.79,1-6.71,5.44-10.06,8.38-1.93-4.07-5.48-8.43-5.43-12.26.14-10.22,1.84-20.21,2.91-30.3-4.23,1.8-6.23,5.09-8.76,7.62-31.16,31.15-54.53,70.86-76.85,111.39-7.06,12.83-8.64,30.41-14.07,44.93-12.25,32.78-19.37,67.86-23,104.27-1.2,12.07.58,25.9,3.93,38,4.19,15.17,11.93,30.46,25.62,34.34,14,4,26.06-3.65,32-18.32,10.27-25.34,21.24-50.83,27.42-78.29,13.43-59.64,23.33-120.8,27.69-183.75C2164.36,1103.12,2164.62,1094.6,2172.53,1092.66Zm-20.83-302c-12.72,7.26-24.26,11.69-33.65,19.68-16.29,13.87-31.24,30-46.79,45.08-6.62,6.43-11.93,6.06-14.93-8.87-21.55,18.88-38.53,41.56-53.61,66.75l-3.93-3.89,8.81-8.51-3-4.35c-2.57,1.12-5.51,1.61-7.63,3.45-8.73,7.53-6.76,18.42-6.17,27.24-2.46,2.64-3.08,7-2.6,11.37.22,2,2.77,5.74,3.91,5.68a24.62,24.62,0,0,0,10.66-3.07c1.6-.89,2.07-4.26,3.22-6.36,3.35-6.14,6.55-12.44,10.24-18.25,4.2-6.6,8.73-12.87,13.35-19s9.35-11.74,14-17.59l3.11,3.19c-6,21.68-23.12,34-32.82,54.08C2043.31,939.82,2145.51,832.4,2151.7,790.67ZM1987.94,958.58c-6.55,5.66-10.79,9.28-15,13-2.74,2.4-7.67,4.54-7.73,7.39-.17,8.7.31,18.16,3,26.38,1.74,5.36,7.73,9.09,13,14.86C1983.38,1000.33,1985.48,981.05,1987.94,958.58Zm-226.17,74.17c-5.63,17.81-10.52,33.29-15.42,48.77C1758.8,1072.14,1767.23,1045.79,1761.77,1032.75Z" style="fill: #231815"/>
      <path d="M566.07,1291.4C552,1316.27,537.81,1341,524,1366c-24.66,44.58-48.7,89.74-73.91,133.81a105.36,105.36,0,0,1-25.23,29.37c-14,11.21-30.37,8.78-45.3-3.3-13.75-11.12-12.92-30-14.76-46.38-.44-3.93,5.81-7.76,8.2-12.33,2.95-5.67,5.08-12,9.58-23,.59,13.93,1,23.24,1.38,32.54l4.65,1.67c2-11.26,3.34-22.81,6.07-33.7,3.82-15.26,5.65-33.49,13.72-44.21,12.57-16.7,10.65-39.55,18-58,6.3-15.69,11.17-32.39,17-48.45,9.49-26.24,17.14-54.08,29.4-78,13.51-26.4,16.6-58.65,30.09-84.85,5-9.81,5.09-23.88,5.4-37.06-12.74,13.36-15.12,37.84-37.17,41.16,3.81-13.6,6.23-27.24,11.2-39,19.7-46.77,40.24-92.93,60.36-139.4,3.49-8.05,7.34-16.05,9.52-24.8,3.42-13.73,10.67-16.37,20.93-10.37,24.88,14.55,32.69,22.05,22.43,48.47-11.64,30-24.34,59.32-37.25,88.42-7.45,16.78-16.31,32.49-24.29,48.89-.73,1.5.86,4.66.51,6.72-.94,5.54-1.06,14.51-3.81,15.71-13.6,5.95-18.29,21.12-23.57,34.68-14.71,37.81-28.3,76.39-41.86,115-13.16,37.44-27.05,74.52-38.13,113.11-8.76,30.5-16.82,61.9-18.52,95.4l4.24,3.67c11.65-15.82,24.26-30.68,34.77-47.63q93.24-150.27,185.54-301.47c7-11.47,12.76-24.22,18.73-36.67,8.3-17.29,12.13-18.06,31.2-5.12,11.28,7.66,15.7,20.2,10.51,34.46-7.69,21.13-15.45,42.39-25,62.16a1652.85,1652.85,0,0,0-97.48,253.93c-7.21,24.71-9.81,52-14.22,78.16-.65,3.84.4,8.32,1,18.12,11.07-8.36,20.85-12.69,27.18-21,27.72-36.57,55.44-73.26,81.3-111.86,45.15-67.38,75.53-147.3,111.08-222.8,4-8.57,6.81-18.13,10.16-27.24l5.37,3.34c-5.95,16.93-11.37,34.23-18,50.69-6.92,17.19-15.18,33.44-22.5,50.36s-14.24,34.17-22.77,54.72c21.84-11.15,19.23-46.27,40.08-52.63l4,3.3c-8.22,23.66-15.43,48-25,70.77-9.46,22.55-20.59,44-32.19,64.88-15.85,28.51-31.45,57.5-49.71,83.51-20.8,29.64-40.46,62.16-71.46,77.51-12.86,6.37-28.22,10.33-42.41,8.45C533,1577,521,1556.56,515,1532c-9.79-39.78,3.74-72.17,12.53-105.35,10.09-38.09,24.48-74,36.91-110.9,2.29-6.8,4.12-13.87,6.17-20.82Zm-34,239.15,5.89-.14c-6.75-10.78,7.32-22.93-2.43-33.52l-5.35.12Z" style="fill: #231815"/>
      <path d="M795.29,1156.38c4.33-16,7.75-32.49,13.17-47.75,9.11-25.65,19.5-50.48,29.34-75.66.19-.49.18-1.22.48-1.5,16.89-15.77,13.88-43.61,21.28-65.17,13.63-39.7,25.05-80.85,36-122.09,5.54-20.87,6.59-44.07,12.42-64.76,6-21.3,5.08-42.73,1.75-64.92-1-6.47-4.09-12.67-5.79-19.11-1.4-5.27-4-14.74-2.88-15.4,5-3,11.85-6.6,16.74-4.36,13.75,6.33,20.86,21.06,21.7,37.88,2.13,42.79,3.67,85.34-12.9,123.42-6.87,15.78-9.69,34.54-14.82,51.69-7.34,24.57-14.2,49.27-33.42,64.3-5.07,4-6.22,15-9.11,22.76q-32.16,86.63-64.35,173.21c-1.34,3.6-3.55,6.63-5.36,9.92Z" style="fill: #231815"/>
      <path d="M899.12,1111c9-20,16.46-38.42,25.6-55.41,2.29-4.26,9.87-4.67,15.24-4.86,1.31,0,5.77,9.37,4.84,11.67-8.75,21.66-22.67,37.52-39.22,50C905.15,1112.79,904.22,1112.21,899.12,1111Z" style="fill: #231815"/>
      <path d="M1010.49,1049.5l38.09-86.66,5.11,3.7c-11.13,27.39-22.2,54.83-33.62,82C1019.5,1049.92,1015.88,1049.07,1010.49,1049.5Z" style="fill: #231815"/>
      <path d="M993,1103.89c1.92-10.92,3.26-18.56,4.71-26.86C1008.7,1086.41,1008,1091.18,993,1103.89Z" style="fill: #231815"/>
      <path d="M1558,1126.87l-6.2,34.37-5.6-3q6.07-15.56,12.16-31.09Z" style="fill: #231815"/>
      <path d="M847.36,1080.18l-19.56,52.66-3.71-2.51,20.55-52Z" style="fill: #231815"/>
      <path d="M820.86,1148.19l-12.09,36.48-4.36-2.71q6.81-18,13.61-36Z" style="fill: #231815"/>
      <path d="M1256.54,986.16l-21.2,72-2.85-1.57q10.24-36.42,20.47-72.83Z" style="fill: #231815"/>
      <path d="M1306.83,833.27c.64,3.75,2.68,8.42,1.69,11.1-5.88,16-12.47,31.43-18.82,47.07l-3.06-2q10.11-28.07,20.21-56.13Z" style="fill: #231815"/>
    </g>
  </g>
</svg>
